<svg xmlns="http://www.w3.org/2000/svg" version="1.1" xmlns:xlink="http://www.w3.org/1999/xlink" viewBox="0 0 28.585942453687494 32.503552007038834"><g transform="matrix(0.8571428571428571,0,0,0.8571428571428571,4.0837060648125,26.535658688415523)"><g transform="matrix(1,0,0,1,0,0)" clip-path="url(#SvgjsClipPath28716)"><g clip-path="url(#SvgjsClipPath287144179c19a-3cb0-470f-b423-d09addb0c717)"><path d=" M 12.238409570314728 -20.367997062845898 L 20.847347355797517 -20.367997062845898 C 20.847347355797517 -23.392733619256155 18.37260371029609 -25.86747726475758 15.348071202602497 -25.86747726475758 L 2.9742713556087157 -25.86747726475758 L 2.9742713556087157 -20.36799706284589 L 12.238409570314728 -20.36799706284589 Z" fill="#3564db" transform="matrix(1,0,0,1,0,0)" fill-rule="nonzero"></path></g><g clip-path="url(#SvgjsClipPath287144179c19a-3cb0-470f-b423-d09addb0c717)"><path d=" M 8.473710747777066 -17.39459916354948 L 8.473710747777066 -20.367997062845898 L 2.9742713556087157 -20.367997062845898 L 2.9742713556087157 -6.619439392168346 C 2.9742713556087157 -3.5947844552447563 5.449015001110144 -1.1199999999999903 8.473710747777066 -1.1199999999999903 L 8.473710747777066 -17.39459916354948 Z" fill="#9400d9" transform="matrix(1,0,0,1,0,0)" fill-rule="nonzero"></path></g><g clip-path="url(#SvgjsClipPath287144179c19a-3cb0-470f-b423-d09addb0c717)"><path d=" M 8.473710747777066 -10.743998531422942 L 11.223430443861252 -10.743998531422942 C 14.248126190528186 -10.743998531422942 16.722869836029588 -13.218782986667703 16.722869836029588 -16.243437923591298 L 8.473710747777066 -16.243437923591298 Z" fill="#59f1ff" transform="matrix(1,0,0,1,0,0)" fill-rule="nonzero"></path></g></g><g><path d=" M 1.1770289999999999 0.10745699999999969 L 1.1770289999999999 0.29238299999999984 L 0.419832 0.29238299999999984 L 0.419832 0.8796479999999998 L 1.034586 0.8796479999999998 L 1.034586 1.0645739999999997 L 0.419832 1.0645739999999997 L 0.419832 1.8492599999999997 L 0.19242299999999998 1.8492599999999997 L 0.19242299999999998 0.10745699999999969 L 1.1770289999999999 0.10745699999999969 M 2.356102982460937 0.5197919999999998 Q 2.467308482460937 0.4548179999999997 2.627244482460937 0.4548179999999997 L 2.627244482460937 0.6897239999999998 L 2.5672684824609373 0.6897239999999998 Q 2.184921482460937 0.6897239999999998 2.184921482460937 1.1045579999999997 L 2.184921482460937 1.8492599999999997 L 1.9575124824609371 1.8492599999999997 L 1.9575124824609371 0.4798079999999998 L 2.184921482460937 0.4798079999999998 L 2.184921482460937 0.7022189999999997 Q 2.244897482460937 0.5847659999999997 2.356102982460937 0.5197919999999998 M 4.637129806230469 1.2494999999999998 L 3.5425678062304686 1.2494999999999998 Q 3.5550628062304686 1.4519189999999997 3.681262306230469 1.5656234999999996 Q 3.8074618062304686 1.6793279999999997 3.9873898062304685 1.6793279999999997 Q 4.134830806230468 1.6793279999999997 4.233541306230469 1.6106054999999997 Q 4.3322518062304685 1.5418829999999997 4.372235806230469 1.4269289999999997 L 4.617137806230469 1.4269289999999997 Q 4.5621598062304685 1.6243499999999997 4.397225806230469 1.7480504999999997 Q 4.232291806230469 1.8717509999999997 3.9873898062304685 1.8717509999999997 Q 3.7924678062304684 1.8717509999999997 3.6387793062304685 1.7842859999999996 Q 3.4850908062304686 1.6968209999999997 3.3976258062304687 1.5356354999999997 Q 3.310160806230469 1.3744499999999997 3.310160806230469 1.1620349999999997 Q 3.310160806230469 0.9496199999999997 3.3951268062304685 0.7896839999999996 Q 3.4800928062304686 0.6297479999999998 3.6337813062304685 0.5435324999999998 Q 3.787469806230469 0.45731699999999975 3.9873898062304685 0.45731699999999975 Q 4.1823118062304685 0.45731699999999975 4.3322518062304685 0.5422829999999996 Q 4.482191806230468 0.6272489999999997 4.563409306230469 0.7759394999999998 Q 4.644626806230469 0.9246299999999997 4.644626806230469 1.1120549999999998 Q 4.644626806230469 1.1770289999999997 4.637129806230469 1.2494999999999998 M 4.352243806230469 0.8409134999999996 Q 4.294766806230468 0.7472009999999998 4.196056306230469 0.6984704999999998 Q 4.097345806230469 0.6497399999999998 3.977393806230469 0.6497399999999998 Q 3.804962806230469 0.6497399999999998 3.6837613062304686 0.7596959999999997 Q 3.562559806230469 0.8696519999999998 3.5450668062304684 1.0645739999999997 L 4.409720806230469 1.0645739999999997 Q 4.409720806230469 0.9346259999999997 4.352243806230469 0.8409134999999996 M 6.692020314082031 1.2494999999999998 L 5.597458314082031 1.2494999999999998 Q 5.609953314082031 1.4519189999999997 5.736152814082031 1.5656234999999996 Q 5.862352314082031 1.6793279999999997 6.0422803140820305 1.6793279999999997 Q 6.18972131408203 1.6793279999999997 6.288431814082031 1.6106054999999997 Q 6.3871423140820305 1.5418829999999997 6.427126314082031 1.4269289999999997 L 6.672028314082031 1.4269289999999997 Q 6.6170503140820305 1.6243499999999997 6.452116314082031 1.7480504999999997 Q 6.287182314082031 1.8717509999999997 6.0422803140820305 1.8717509999999997 Q 5.84735831408203 1.8717509999999997 5.693669814082031 1.7842859999999996 Q 5.539981314082031 1.6968209999999997 5.452516314082031 1.5356354999999997 Q 5.365051314082031 1.3744499999999997 5.365051314082031 1.1620349999999997 Q 5.365051314082031 0.9496199999999997 5.4500173140820305 0.7896839999999996 Q 5.534983314082031 0.6297479999999998 5.6886718140820305 0.5435324999999998 Q 5.842360314082031 0.45731699999999975 6.0422803140820305 0.45731699999999975 Q 6.2372023140820305 0.45731699999999975 6.3871423140820305 0.5422829999999996 Q 6.53708231408203 0.6272489999999997 6.618299814082031 0.7759394999999998 Q 6.699517314082031 0.9246299999999997 6.699517314082031 1.1120549999999998 Q 6.699517314082031 1.1770289999999997 6.692020314082031 1.2494999999999998 M 6.407134314082031 0.8409134999999996 Q 6.34965731408203 0.7472009999999998 6.250946814082031 0.6984704999999998 Q 6.152236314082031 0.6497399999999998 6.03228431408203 0.6497399999999998 Q 5.859853314082031 0.6497399999999998 5.738651814082031 0.7596959999999997 Q 5.61745031408203 0.8696519999999998 5.5999573140820305 1.0645739999999997 L 6.464611314082031 1.0645739999999997 Q 6.464611314082031 0.9346259999999997 6.407134314082031 0.8409134999999996 M 7.732316821933592 -2.220446049250313e-16 L 7.732316821933592 1.8492599999999997 L 7.5049078219335925 1.8492599999999997 L 7.5049078219335925 -2.220446049250313e-16 L 7.732316821933592 -2.220446049250313e-16 M 8.625113759472654 0.7909334999999997 Q 8.710079759472654 0.6322469999999998 8.858770259472655 0.5447819999999997 Q 9.007460759472654 0.45731699999999975 9.189887759472654 0.45731699999999975 Q 9.369815759472655 0.45731699999999975 9.502262759472654 0.5347859999999998 Q 9.634709759472655 0.6122549999999998 9.699683759472654 0.7297079999999998 L 9.699683759472654 0.4798079999999998 L 9.929591759472654 0.4798079999999998 L 9.929591759472654 1.8492599999999997 L 9.699683759472654 1.8492599999999997 L 9.699683759472654 1.5943619999999996 Q 9.632210759472654 1.7143139999999997 9.498514259472655 1.7930324999999996 Q 9.364817759472654 1.8717509999999997 9.187388759472654 1.8717509999999997 Q 9.004961759472655 1.8717509999999997 8.857520759472655 1.7817869999999998 Q 8.710079759472654 1.6918229999999996 8.625113759472654 1.5293879999999997 Q 8.540147759472655 1.3669529999999996 8.540147759472655 1.1595359999999997 Q 8.540147759472655 0.9496199999999997 8.625113759472654 0.7909334999999997 M 9.637208759472655 0.8921429999999997 Q 9.574733759472654 0.7771889999999997 9.468526259472654 0.7159634999999998 Q 9.362318759472654 0.6547379999999998 9.234869759472655 0.6547379999999998 Q 9.107420759472655 0.6547379999999998 9.002462759472655 0.7147139999999996 Q 8.897504759472655 0.7746899999999997 8.835029759472654 0.8896439999999997 Q 8.772554759472655 1.0045979999999997 8.772554759472655 1.1595359999999997 Q 8.772554759472655 1.3169729999999997 8.835029759472654 1.4331764999999996 Q 8.897504759472655 1.5493799999999998 9.002462759472655 1.6106054999999997 Q 9.107420759472655 1.6718309999999996 9.234869759472655 1.6718309999999996 Q 9.362318759472654 1.6718309999999996 9.468526259472654 1.6106054999999997 Q 9.574733759472654 1.5493799999999998 9.637208759472655 1.4331764999999996 Q 9.699683759472654 1.3169729999999997 9.699683759472654 1.1620349999999997 Q 9.699683759472654 1.0070969999999997 9.637208759472655 0.8921429999999997 M 11.892094920644528 0.6060074999999998 Q 12.04703292064453 0.7571969999999997 12.04703292064453 1.0420829999999999 L 12.04703292064453 1.8492599999999997 L 11.822122920644528 1.8492599999999997 L 11.822122920644528 1.0745699999999996 Q 11.822122920644528 0.8696519999999998 11.719663920644528 0.7609454999999996 Q 11.617204920644529 0.6522389999999998 11.439775920644529 0.6522389999999998 Q 11.259847920644528 0.6522389999999998 11.153640420644528 0.7646939999999998 Q 11.047432920644528 0.8771489999999997 11.047432920644528 1.0920629999999996 L 11.047432920644528 1.8492599999999997 L 10.820023920644529 1.8492599999999997 L 10.820023920644529 0.4798079999999998 L 11.047432920644528 0.4798079999999998 L 11.047432920644528 0.6747299999999998 Q 11.114905920644528 0.5697719999999997 11.231109420644529 0.5122949999999997 Q 11.347312920644528 0.4548179999999997 11.487256920644528 0.4548179999999997 Q 11.737156920644528 0.4548179999999997 11.892094920644528 0.6060074999999998 M 12.92494323708984 0.7909334999999997 Q 13.00990923708984 0.6322469999999998 13.16109873708984 0.5447819999999997 Q 13.31228823708984 0.45731699999999975 13.50721023708984 0.45731699999999975 Q 13.75960923708984 0.45731699999999975 13.92329373708984 0.5797679999999996 Q 14.08697823708984 0.7022189999999997 14.13945723708984 0.9196319999999997 L 13.89455523708984 0.9196319999999997 Q 13.85956923708984 0.7946819999999997 13.75835973708984 0.7222109999999997 Q 13.65715023708984 0.6497399999999998 13.50721023708984 0.6497399999999998 Q 13.31228823708984 0.6497399999999998 13.19233623708984 0.7834364999999996 Q 13.07238423708984 0.9171329999999998 13.07238423708984 1.1620349999999997 Q 13.07238423708984 1.4094359999999997 13.19233623708984 1.5443819999999997 Q 13.31228823708984 1.6793279999999997 13.50721023708984 1.6793279999999997 Q 13.65715023708984 1.6793279999999997 13.75711023708984 1.6093559999999996 Q 13.85707023708984 1.5393839999999996 13.89455523708984 1.4094359999999997 L 14.13945723708984 1.4094359999999997 Q 14.084479237089841 1.6193519999999997 13.91954523708984 1.7455514999999997 Q 13.75461123708984 1.8717509999999997 13.50721023708984 1.8717509999999997 Q 13.31228823708984 1.8717509999999997 13.16109873708984 1.7842859999999996 Q 13.00990923708984 1.6968209999999997 12.92494323708984 1.5368849999999996 Q 12.83997723708984 1.3769489999999998 12.83997723708984 1.1620349999999997 Q 12.83997723708984 0.9496199999999997 12.92494323708984 0.7909334999999997 M 16.189348524726558 1.2494999999999998 L 15.09478652472656 1.2494999999999998 Q 15.10728152472656 1.4519189999999997 15.23348102472656 1.5656234999999996 Q 15.35968052472656 1.6793279999999997 15.53960852472656 1.6793279999999997 Q 15.68704952472656 1.6793279999999997 15.78576002472656 1.6106054999999997 Q 15.88447052472656 1.5418829999999997 15.92445452472656 1.4269289999999997 L 16.16935652472656 1.4269289999999997 Q 16.11437852472656 1.6243499999999997 15.949444524726559 1.7480504999999997 Q 15.78451052472656 1.8717509999999997 15.53960852472656 1.8717509999999997 Q 15.34468652472656 1.8717509999999997 15.190998024726559 1.7842859999999996 Q 15.03730952472656 1.6968209999999997 14.94984452472656 1.5356354999999997 Q 14.86237952472656 1.3744499999999997 14.86237952472656 1.1620349999999997 Q 14.86237952472656 0.9496199999999997 14.94734552472656 0.7896839999999996 Q 15.032311524726559 0.6297479999999998 15.18600002472656 0.5435324999999998 Q 15.33968852472656 0.45731699999999975 15.53960852472656 0.45731699999999975 Q 15.73453052472656 0.45731699999999975 15.88447052472656 0.5422829999999996 Q 16.03441052472656 0.6272489999999997 16.11562802472656 0.7759394999999998 Q 16.19684552472656 0.9246299999999997 16.19684552472656 1.1120549999999998 Q 16.19684552472656 1.1770289999999997 16.189348524726558 1.2494999999999998 M 15.90446252472656 0.8409134999999996 Q 15.84698552472656 0.7472009999999998 15.74827502472656 0.6984704999999998 Q 15.649564524726559 0.6497399999999998 15.52961252472656 0.6497399999999998 Q 15.35718152472656 0.6497399999999998 15.23598002472656 0.7596959999999997 Q 15.11477852472656 0.8696519999999998 15.09728552472656 1.0645739999999997 L 15.96193952472656 1.0645739999999997 Q 15.96193952472656 0.9346259999999997 15.90446252472656 0.8409134999999996 M 17.40082653257812 0.5197919999999998 Q 17.51203203257812 0.4548179999999997 17.67196803257812 0.4548179999999997 L 17.67196803257812 0.6897239999999998 L 17.61199203257812 0.6897239999999998 Q 17.22964503257812 0.6897239999999998 17.22964503257812 1.1045579999999997 L 17.22964503257812 1.8492599999999997 L 17.00223603257812 1.8492599999999997 L 17.00223603257812 0.4798079999999998 L 17.22964503257812 0.4798079999999998 L 17.22964503257812 0.7022189999999997 Q 17.28962103257812 0.5847659999999997 17.40082653257812 0.5197919999999998 M 18.64226935634765 1.8180224999999997 Q 18.51731935634765 1.7642939999999996 18.44484835634765 1.6680824999999997 Q 18.37237735634765 1.5718709999999998 18.36488035634765 1.4469209999999997 L 18.59978635634765 1.4469209999999997 Q 18.60978235634765 1.5493799999999998 18.69599785634765 1.6143539999999996 Q 18.78221335634765 1.6793279999999997 18.92215735634765 1.6793279999999997 Q 19.05210535634765 1.6793279999999997 19.12707535634765 1.6218509999999997 Q 19.20204535634765 1.5643739999999997 19.20204535634765 1.4769089999999996 Q 19.20204535634765 1.3869449999999997 19.12207735634765 1.3432124999999997 Q 19.042109356347652 1.2994799999999997 18.87467635634765 1.2569969999999997 Q 18.72223735634765 1.2170129999999997 18.62602585634765 1.1757794999999998 Q 18.52981435634765 1.1345459999999998 18.46109185634765 1.0533284999999997 Q 18.39236935634765 0.9721109999999997 18.39236935634765 0.8396639999999997 Q 18.39236935634765 0.7347059999999996 18.45484435634765 0.6472409999999997 Q 18.51731935634765 0.5597759999999998 18.63227335634765 0.5085464999999998 Q 18.74722735634765 0.45731699999999975 18.89466835634765 0.45731699999999975 Q 19.12207735634765 0.45731699999999975 19.26202135634765 0.5722709999999998 Q 19.40196535634765 0.6872249999999998 19.41196135634765 0.8871449999999997 L 19.184552356347652 0.8871449999999997 Q 19.17705535634765 0.7796879999999997 19.09833685634765 0.7147139999999996 Q 19.01961835634765 0.6497399999999998 18.88717135634765 0.6497399999999998 Q 18.76472035634765 0.6497399999999998 18.69224935634765 0.7022189999999997 Q 18.61977835634765 0.7546979999999996 18.61977835634765 0.8396639999999997 Q 18.61977835634765 0.9071369999999997 18.66351085634765 0.9508694999999997 Q 18.70724335634765 0.9946019999999998 18.77346685634765 1.0208414999999997 Q 18.83969035634765 1.0470809999999997 18.95714335634765 1.0795679999999996 Q 19.10458435634765 1.1195519999999997 19.19704735634765 1.1582864999999996 Q 19.289510356347648 1.1970209999999997 19.35573385634765 1.2744899999999997 Q 19.42195735634765 1.3519589999999997 19.42445635634765 1.4769089999999996 Q 19.42445635634765 1.5893639999999998 19.36198135634765 1.6793279999999997 Q 19.29950635634765 1.7692919999999996 19.18580185634765 1.8205214999999997 Q 19.07209735634765 1.8717509999999997 18.92465635634765 1.8717509999999997 Q 18.76721935634765 1.8717509999999997 18.64226935634765 1.8180224999999997 M 20.1573197343164 1.4469209999999997 L 20.1573197343164 1.2744899999999997 L 21.0344687343164 0.05997599999999981 L 21.3068597343164 0.05997599999999981 L 21.3068597343164 1.2494999999999998 L 21.5567597343164 1.2494999999999998 L 21.5567597343164 1.4469209999999997 L 21.3068597343164 1.4469209999999997 L 21.3068597343164 1.8492599999999997 L 21.0819497343164 1.8492599999999997 L 21.0819497343164 1.4469209999999997 L 20.1573197343164 1.4469209999999997 M 21.0919457343164 0.2973809999999997 L 20.4197147343164 1.2494999999999998 L 21.0919457343164 1.2494999999999998 L 21.0919457343164 0.2973809999999997 M 22.549658216777335 0.10745699999999969 L 22.549658216777335 1.2095159999999998 Q 22.549658216777335 1.4419229999999996 22.663362716777335 1.5543779999999998 Q 22.777067216777336 1.6668329999999996 22.979486216777335 1.6668329999999996 Q 23.179406216777334 1.6668329999999996 23.293110716777335 1.5543779999999998 Q 23.406815216777336 1.4419229999999996 23.406815216777336 1.2095159999999998 L 23.406815216777336 0.10745699999999969 L 23.634224216777337 0.10745699999999969 L 23.634224216777337 1.2070169999999996 Q 23.634224216777337 1.4244299999999996 23.546759216777335 1.5731204999999997 Q 23.459294216777337 1.7218109999999998 23.310603716777337 1.7942819999999997 Q 23.161913216777336 1.8667529999999997 22.976987216777335 1.8667529999999997 Q 22.792061216777334 1.8667529999999997 22.643370716777337 1.7942819999999997 Q 22.494680216777336 1.7218109999999998 22.408464716777335 1.5731204999999997 Q 22.322249216777337 1.4244299999999996 22.322249216777337 1.2070169999999996 L 22.322249216777337 0.10745699999999969 L 22.549658216777335 0.10745699999999969" fill="#000000" fill-rule="nonzero"></path></g><g></g></g><defs><clipPath id="SvgjsClipPath28716"><path d=" M 2.9742713556087157 -25.867477264757586 h 17.873076000188814 v 24.747477264757585 h -17.873076000188814 Z"></path></clipPath><clipPath id="SvgjsClipPath287144179c19a-3cb0-470f-b423-d09addb0c717"><path d=" M 2.9742713556087175 -25.867477264757586 L 20.84734735579753 -25.867477264757586 L 20.84734735579753 -1.120000000000001 L 2.974271355608719 -1.120000000000001 Z"></path></clipPath></defs></svg>